<svg xmlns="http://www.w3.org/2000/svg" viewBox="0 0 161.06 195"><g id="Layer_2" data-name="Layer 2"><g id="Layer_1-2" data-name="Layer 1"><path d="M80.53,0A80.44,80.44,0,0,0,32,144.65c.74-1.31,1.44-2.58,2.14-3.85a75.64,75.64,0,1,1,10.18,6.64c-.79,1.22-1.57,2.4-2.4,3.63A79.75,79.75,0,0,0,80.53,161a80.49,80.49,0,1,0,0-161Z"/><path d="M125.62,91.84c-2.75-1.35-24.07-11.66-34.43-11.66a10.67,10.67,0,0,0-2.53.27c-5.07,1.26-27.92,34.28-48.07,64.81-.83,1.22-1.61,2.44-2.4,3.67C24.25,170.06,12,189.32,8.35,195c3.32-5.81,14.76-25.64,27.18-47.78.69-1.26,1.39-2.57,2.14-3.84C55.45,111.41,74.2,76,73,71,70.83,62,48.11,45.33,45.36,43.28c2.75,1.4,24.29,12.27,34.69,12.27a9.75,9.75,0,0,0,2.4-.26c9-2.18,25.39-25.11,27.36-27.86-1.44,3-13.85,28.34-11.63,37.34C100.37,73.59,122.87,89.88,125.62,91.84Z"/><path d="M115.71,90.71s0,0,0,.09a9.88,9.88,0,0,0-.7,1c.09,0,.13.08.22.08a8.31,8.31,0,0,0,.57-1.13Z"/><path d="M124,124.12c-1.4-.66-12.59-6.16-18.05-6.16a6,6,0,0,0-1.35.13c-4.37,1.09-20.1,25.25-23.47,30.44,2-3.4,8.35-14.41,9.35-16.11a.68.68,0,0,1,.14-.22c.91-1.88,7.12-14.41,6-18.91C95.52,108.62,83.81,100,82.32,98.92c1.4.7,12.59,6.38,18,6.38a3.74,3.74,0,0,0,1.27-.18c4.06-1,11-10,13.41-13.36a9.88,9.88,0,0,1,.7-1s0,0,0-.09h0a8.31,8.31,0,0,1-.57,1.13c-1.75,3.63-6.64,14.07-5.63,18.13C110.68,114.6,122.52,123.07,124,124.12Z"/><path d="M54.66,91.71c-1.09-.52-10.4-5.11-13.63-4.28-2.93.75-16,20.57-20,26.69,2.62-4.41,9.27-15.42,10-16.6l0,0h0c.52-1,5.11-10.22,4.32-13.45-.83-3.5-10.18-10.18-10.18-10.18s10.18,5.33,13.64,4.46,9.35-9.31,10-10.22c0,0,0,0,0,.13s0-.09.09-.09c-.57,1.05-5.25,10.31-4.42,13.58S53.62,91,54.66,91.71Z"/></g></g></svg>